. 
  
http://www.torrenting.com/        :     Greatest Movie Tracker on The Net!!!
 
http://www.Torrenting.com          :     Once & For all ;)


               www . Torrenting . Com 

(((((((((((((= Enjoy No RAR releases =))))))))))))))))))))


...................................NFO:....................................

.[img]http://img263.imageshack.us/img263/5513/1313204363xmenfirstclas.jpg[/img]


[color=blue][size=5][b]X-Men.First.Class.2011.BDRip.XVID.AC3.HQ.Hive-CM8[/b][/size][/color]


[b]Thx Hive

CM8 Doing It Right The First Time :D


Source: Bluray

Video: 720x304 @bitrate 1800 2pass
Audio: English DTS to AC3 5.1 @448
Sample: yes included
Subs: yes hardcoded for foreign parts only
full subs in srt /subs[/b]


[url]http://www.imdb.com/title/tt1270798/[/url]


General
Complete name                    : X-Men.First.Class.2011.BDRip.XVID.AC3.HQ.Hive-CM8.avi
Format                           : AVI
Format/Info                      : Audio Video Interleave
Format profile                   : OpenDML
Format settings                  : rec
File size                        : 2.07 GiB
Duration                         : 2h 11mn
Overall bit rate                 : 2 254 Kbps
Writing application              : AVI-Mux GUI 1.17.7, Aug  8 2006  20:59:17

Video
ID                               : 0
Format                           : MPEG-4 Visual
Format profile                   : Advanced Simple@L5
Format settings, BVOP            : 1
Format settings, QPel            : Yes
Format settings, GMC             : No warppoints
Format settings, Matrix          : Default (H.263)
Muxing mode                      : Packed bitstream
Codec ID                         : XVID
Codec ID/Hint                    : XviD
Duration                         : 2h 11mn
Bit rate                         : 1 800 Kbps
Width                            : 720 pixels
Height                           : 304 pixels
Display aspect ratio             : 2.35:1
Frame rate                       : 23.976 fps
Color space                      : YUV
Chroma subsampling               : 4:2:0
Bit depth                        : 8 bits
Scan type                        : Progressive
Compression mode                 : Lossy
Bits/(Pixel*Frame)               : 0.343
Stream size                      : 1.66 GiB (80%)
Writing library                  : XviD 1.2.1 (UTC 2008-12-04)

Audio
ID                               : 1
Format                           : AC-3
Format/Info                      : Audio Coding 3
Mode extension                   : CM (complete main)
Codec ID                         : 2000
Duration                         : 2h 11mn
Bit rate mode                    : Constant
Bit rate                         : 448 Kbps
Channel(s)                       : 6 channels
Channel positions                : Front: L C R, Side: L R, LFE
Sampling rate                    : 48.0 KHz
Bit depth                        : 16 bits
Compression mode                 : Lossy
Stream size                      : 422 MiB (20%)
Alignment                        : Aligned on interleaves
Interleave, duration             : 64 ms (1.53 video frames)
Interleave, preload duration     : 192 ms


Plot:
In 1962, the United States government enlists the help of Mutants with superhuman
abilities to stop a malicious dictator who is determined to start world war III.


Cast:
James McAvoy        ...   Charles Xavier
Michael Fassbender  ...   Erik Lehnsherr / Magneto
Kevin Bacon         ...   Sebastian Shaw
Rose Byrne          ...   Moira MacTaggert
Jennifer Lawrence   ...   Raven / Mystique
January Jones       ...   Emma Frost


[img]http://img840.imageshack.us/img840/9550/95777690.png[/img]
[img]http://img155.imageshack.us/img155/2259/58730268.png[/img]
[img]http://img24.imageshack.us/img24/9224/93192861.png[/img]
[img]http://img163.imageshack.us/img163/2428/88496404.png[/img]
[img]http://img195.imageshack.us/img195/1656/67678420.png[/img]
[img]http://img847.imageshack.us/img847/9627/65250146.png[/img]
[img]http://img703.imageshack.us/img703/5103/26681281.png[/img]
[img]http://img198.imageshack.us/img198/8955/13077282.png[/img]
[img]http://img42.imageshack.us/img42/2508/99397108.png[/img]
[img]http://img148.imageshack.us/img148/839/91077986.png[/img]



Greetz

ViSiON,SiC,SANTi,3LT0N,YanKeeS,MAGNET,THC,T0XiC,LKRG,FANTASIA-PLAY,FANTASIA-M,BHRG,WBZ
D2U,IMAGiNE,FLAWL3SS,NOVA,Vik,Rapeseed,SAFC,goldadvance,MEMORY100,scumbag,Hero5,Pinnz
Unevano,KaN1vE,Wayne,cedrict wink,Mr Hive and all P2P groups
Great Work Guys :D

FYS

CM8@hushmail.com